<?xml version="1.0" standalone="no"?>
<!DOCTYPE svg PUBLIC "-//W3C//DTD SVG 20010904//EN"
 "http://www.w3.org/TR/2001/REC-SVG-20010904/DTD/svg10.dtd">
<svg version="1.0" xmlns="http://www.w3.org/2000/svg"
 width="384.000000pt" height="384.000000pt" viewBox="0 0 384.000000 384.000000"
 preserveAspectRatio="xMidYMid meet">
<metadata>
Created by potrace 1.14, written by Peter Selinger 2001-2017
</metadata>
<g transform="translate(0.000000,384.000000) scale(0.100000,-0.100000)"
fill="#000000" stroke="none">
<path d="M1306 3105 c-3 -10 -19 -15 -46 -15 -23 0 -47 -6 -54 -12 -8 -7 -24
-20 -36 -28 -52 -35 -90 -79 -90 -104 0 -14 -4 -26 -10 -26 -6 0 -10 -38 -10
-95 0 -57 4 -95 10 -95 6 0 10 -7 10 -15 0 -25 72 -105 95 -105 8 0 15 -7 15
-15 0 -10 10 -15 29 -15 16 0 31 -6 35 -15 3 -9 18 -15 35 -15 16 0 31 -5 33
-10 2 -6 29 -14 61 -17 31 -3 57 -10 57 -14 0 -5 11 -9 24 -9 14 0 31 -7 40
-15 8 -8 21 -15 28 -15 7 0 22 -20 33 -45 20 -45 35 -58 35 -30 0 8 4 15 8 15
11 0 52 35 52 44 0 3 30 36 68 73 39 39 62 68 55 70 -7 3 -13 11 -13 19 0 8
-4 14 -9 14 -4 0 -24 15 -44 33 -61 54 -65 57 -91 57 -13 0 -31 7 -40 15 -8 8
-32 15 -55 15 -22 0 -46 7 -55 15 -8 8 -31 15 -51 15 -20 0 -43 7 -51 15 -9 8
-24 15 -34 15 -10 0 -20 9 -23 20 -6 24 2 60 14 60 5 0 9 7 9 15 0 12 15 15
75 15 54 0 75 -4 75 -13 0 -7 9 -19 20 -27 12 -8 20 -26 20 -42 l0 -28 130 0
130 0 0 55 c0 30 -4 55 -10 55 -5 0 -10 11 -10 25 0 23 -18 52 -48 79 -7 6
-18 16 -25 22 -7 6 -23 15 -35 18 -12 4 -22 12 -22 17 0 5 -18 9 -40 9 -27 0
-43 5 -46 15 -5 12 -28 15 -124 15 -96 0 -119 -3 -124 -15z"/>
<path d="M1920 2850 l0 -190 28 6 c15 4 29 10 32 14 3 4 24 11 48 15 23 4 42
11 42 16 0 5 15 9 34 9 19 0 41 7 50 15 8 8 31 15 51 15 22 0 38 6 41 15 4 8
13 15 21 15 15 0 14 10 -8 115 -6 28 -13 65 -16 83 -3 17 -9 32 -14 32 -5 0
-9 7 -9 15 0 13 -23 15 -150 15 l-150 0 0 -190z"/>
<path d="M2460 3025 c0 -8 -4 -15 -8 -15 -9 0 -32 -123 -32 -170 0 -23 4 -30
20 -30 11 0 20 4 20 9 0 6 20 13 45 17 25 3 45 10 45 14 0 5 18 11 40 15 22 4
40 11 40 16 0 5 15 9 34 9 19 0 41 7 50 15 8 8 22 15 30 15 13 0 16 12 16 60
l0 60 -150 0 c-127 0 -150 -2 -150 -15z"/>
<path d="M2420 2740 c0 -5 -11 -12 -25 -16 -22 -5 -25 -12 -25 -50 0 -24 -4
-44 -10 -44 -5 0 -10 -11 -10 -25 0 -14 -4 -25 -10 -25 -5 0 -10 15 -10 33 0
18 -6 45 -12 61 -11 23 -17 26 -43 21 -16 -3 -31 -9 -35 -14 -3 -5 -20 -12
-37 -16 -18 -3 -33 -11 -33 -16 0 -5 -7 -9 -15 -9 -8 0 -15 -7 -15 -16 0 -32
23 -149 32 -158 4 -6 8 -27 8 -48 0 -21 5 -38 10 -38 6 0 10 -18 10 -40 0 -22
4 -40 9 -40 5 0 11 -21 14 -47 7 -61 16 -102 29 -130 10 -21 18 -23 95 -23
l83 0 6 40 c4 22 11 43 15 46 5 3 9 23 9 45 0 21 5 39 10 39 6 0 10 18 10 40
0 22 5 40 10 40 6 0 10 20 10 45 0 25 4 45 9 45 8 0 12 13 29 119 4 25 13 46
20 49 9 3 12 -52 12 -252 l0 -256 95 0 95 0 0 325 0 325 -170 0 c-104 0 -170
-4 -170 -10z"/>
<path d="M2070 2595 c0 -8 -9 -15 -20 -15 -11 0 -20 -4 -20 -9 0 -5 -10 -13
-22 -17 -12 -3 -27 -12 -34 -18 -6 -6 -21 -18 -33 -26 -20 -14 -21 -22 -21
-212 l0 -198 95 0 95 0 0 255 c0 248 -1 255 -20 255 -11 0 -20 -7 -20 -15z"/>
<path d="M1113 2463 c-18 -2 -33 -8 -33 -14 0 -5 -13 -9 -30 -9 -23 0 -30 -4
-30 -20 0 -28 23 -100 32 -100 5 0 8 -11 8 -25 0 -14 5 -25 10 -25 6 0 10 -7
10 -15 0 -8 5 -15 10 -15 6 0 10 -4 10 -10 0 -15 33 -50 46 -50 7 0 14 -7 18
-15 3 -9 18 -15 36 -15 16 0 30 -4 30 -10 0 -6 27 -10 61 -10 59 0 89 13 89
39 0 6 5 11 11 11 15 0 79 65 79 80 0 5 9 10 20 10 11 0 20 4 20 9 0 4 -27 11
-60 14 -33 3 -66 11 -74 19 -7 7 -23 20 -35 28 -11 8 -21 20 -21 27 0 7 -4 13
-9 13 -6 0 -14 19 -18 43 l-9 42 -69 1 c-39 1 -85 -1 -102 -3z"/>
<path d="M1790 2395 c0 -8 -7 -15 -15 -15 -8 0 -27 -12 -43 -27 -16 -16 -39
-35 -51 -43 -39 -26 -61 -47 -61 -59 0 -6 -4 -11 -9 -11 -13 0 -101 -87 -101
-100 0 -5 -4 -10 -10 -10 -5 0 -10 -7 -10 -15 0 -11 12 -15 51 -15 31 0 56 6
65 15 9 8 31 15 50 15 19 0 34 5 34 10 0 6 6 10 13 10 16 0 67 58 67 76 0 8 5
14 10 14 6 0 10 7 10 15 0 8 5 15 10 15 6 0 10 11 10 24 0 14 5 28 10 31 6 3
10 24 10 46 0 32 -3 39 -20 39 -11 0 -20 -7 -20 -15z"/>
<path d="M2580 1710 c0 -109 -3 -145 -14 -156 -18 -17 -82 -19 -89 -1 -4 9 -8
8 -16 -3 -13 -19 -14 -100 -1 -120 6 -10 10 -11 10 -2 0 17 78 16 96 -2 11
-11 14 -47 14 -155 l0 -141 45 0 45 0 -2 358 -3 357 -42 3 -43 3 0 -141z"/>
<path d="M3290 1766 c0 -96 0 -96 -85 -96 l-54 0 -7 -37 c-5 -25 -3 -38 5 -41
6 -2 11 -10 11 -18 0 -11 16 -14 65 -14 l65 0 0 -100 0 -100 45 0 45 0 0 245
0 245 -45 0 -45 0 0 -84z"/>
<path d="M2970 1785 c0 -30 -4 -55 -10 -55 -5 0 -10 -14 -10 -31 0 -39 -20
-109 -32 -109 -4 0 -8 -7 -8 -15 0 -8 -4 -15 -10 -15 -5 0 -10 -7 -10 -15 0
-8 -7 -15 -15 -15 -8 0 -15 -5 -15 -10 0 -14 -52 -65 -74 -73 -13 -5 -15 -13
-10 -29 3 -13 11 -24 15 -26 5 -2 9 -8 9 -14 0 -5 8 -17 17 -26 12 -12 18 -13
21 -4 2 6 12 12 23 12 10 0 19 7 19 15 0 8 7 15 15 15 8 0 15 7 15 15 0 8 5
15 10 15 13 0 50 37 50 50 0 6 5 10 10 10 6 0 10 11 10 25 0 18 5 25 19 25 12
0 21 -9 25 -25 4 -14 11 -25 16 -25 6 0 10 -7 10 -15 0 -8 4 -15 8 -15 14 0
52 -36 52 -49 0 -6 9 -11 19 -11 10 0 22 -8 25 -17 6 -14 12 -12 36 17 33 39
41 90 14 90 -8 0 -29 14 -46 30 -16 17 -34 30 -39 30 -5 0 -9 9 -9 19 0 11 -9
23 -20 26 -13 4 -20 15 -20 31 0 13 -4 24 -9 24 -15 0 -19 46 -9 104 8 45 7
59 -6 78 -9 12 -16 17 -16 10 0 -6 -11 -12 -25 -12 -14 0 -25 5 -25 10 0 6 -4
10 -10 10 -5 0 -10 -25 -10 -55z"/>
<path d="M770 1775 c0 -10 -10 -15 -30 -15 -16 0 -30 -5 -30 -10 0 -6 -9 -30
-20 -52 -14 -30 -20 -62 -20 -112 0 -68 16 -136 32 -136 4 0 8 -7 8 -15 0 -8
5 -15 10 -15 6 0 10 -7 10 -15 0 -8 9 -15 19 -15 10 0 21 -7 25 -15 3 -8 13
-15 21 -15 9 0 22 -6 29 -12 8 -7 24 -20 36 -28 39 -27 60 -47 60 -59 0 -6 4
-11 9 -11 14 0 24 -55 16 -89 -3 -16 -17 -41 -30 -55 -21 -22 -32 -26 -85 -26
-47 0 -60 3 -60 15 0 8 -7 15 -16 15 -15 0 -44 23 -44 34 0 3 -9 15 -20 26
-19 19 -19 19 -26 -16 -11 -59 1 -122 27 -144 13 -11 30 -25 38 -32 20 -16
203 -17 209 0 2 6 9 12 16 12 17 0 56 34 56 49 0 6 4 11 9 11 4 0 16 25 26 56
19 60 16 185 -5 192 -5 2 -10 11 -10 21 0 9 -9 23 -20 31 -11 8 -20 18 -20 22
0 13 -39 48 -54 48 -8 0 -16 7 -20 15 -3 8 -12 15 -21 15 -8 0 -15 4 -15 10 0
5 -12 13 -27 16 -66 16 -101 100 -68 161 10 18 29 36 42 39 33 9 111 -3 127
-18 8 -7 23 -20 35 -28 11 -8 21 -20 21 -27 0 -7 5 -13 10 -13 6 0 10 30 10
70 0 40 -4 70 -10 70 -5 0 -10 7 -10 15 0 8 -9 15 -19 15 -10 0 -21 7 -25 15
-4 12 -25 15 -101 15 -78 0 -95 -3 -95 -15z"/>
<path d="M1067 1783 c-4 -3 -7 -28 -7 -54 0 -57 4 -59 111 -59 l79 0 0 -350 0
-350 50 0 50 0 0 334 c0 184 3 341 6 350 5 13 24 16 100 16 l94 0 0 45 c0 25
5 45 10 45 6 0 10 -7 10 -15 0 -8 5 -15 10 -15 6 0 10 -11 10 -24 0 -13 4 -26
8 -28 8 -3 48 -83 74 -145 7 -18 16 -33 20 -33 5 0 8 -11 8 -25 0 -14 5 -25
10 -25 6 0 10 -7 10 -15 0 -8 5 -15 10 -15 6 0 10 -9 10 -20 0 -28 -23 -100
-32 -100 -5 0 -8 -11 -8 -25 0 -14 -4 -25 -10 -25 -5 0 -10 -6 -10 -14 0 -8
-3 -16 -7 -18 -10 -4 -63 -113 -63 -127 0 -6 -4 -11 -10 -11 -5 0 -10 -11 -10
-25 0 -14 -4 -25 -10 -25 -5 0 -10 -9 -10 -20 0 -11 -4 -20 -10 -20 -5 0 -10
-4 -10 -10 0 -5 23 -10 51 -10 49 0 79 15 79 39 0 6 5 11 10 11 6 0 10 14 10
30 0 17 5 30 10 30 6 0 10 4 10 10 0 5 14 39 30 75 17 36 30 70 30 75 0 6 7
10 15 10 8 0 15 -7 15 -15 0 -8 5 -15 10 -15 6 0 10 -7 10 -15 0 -8 5 -15 10
-15 6 0 10 -13 10 -30 0 -16 5 -30 10 -30 6 0 10 -11 10 -25 0 -14 5 -25 10
-25 6 0 10 -7 10 -15 0 -8 4 -15 8 -15 5 0 14 -18 21 -40 l12 -40 54 0 c30 0
55 3 55 7 0 16 -25 73 -32 73 -4 0 -8 7 -8 15 0 8 -4 15 -10 15 -5 0 -10 8
-10 18 0 10 -9 37 -20 60 -11 22 -20 46 -20 52 0 5 -4 10 -9 10 -5 0 -12 14
-16 30 -4 17 -10 30 -14 30 -4 0 -14 18 -21 40 -7 22 -17 40 -22 40 -4 0 -8
11 -8 25 0 14 5 25 10 25 6 0 10 9 10 19 0 11 3 21 8 23 9 4 62 110 62 126 0
6 5 12 10 12 6 0 10 7 10 15 0 8 5 15 10 15 6 0 10 14 10 30 0 17 5 30 10 30
6 0 10 7 10 15 0 8 5 15 10 15 6 0 10 11 10 24 0 13 5 26 12 28 28 10 -7 28
-53 28 -47 0 -52 -2 -62 -30 -6 -16 -15 -30 -19 -30 -4 0 -8 -11 -8 -25 0 -14
-4 -25 -10 -25 -5 0 -10 -13 -10 -30 0 -16 -4 -30 -10 -30 -5 0 -10 -7 -10
-15 0 -8 -4 -15 -10 -15 -5 0 -10 -13 -10 -30 0 -16 -4 -30 -10 -30 -5 0 -10
-7 -10 -16 0 -28 -22 -10 -38 31 -9 22 -19 42 -24 43 -4 2 -8 11 -8 21 0 22
-23 71 -32 71 -5 0 -8 11 -8 25 0 14 -4 25 -8 25 -4 0 -13 14 -19 30 l-11 30
-294 0 c-162 0 -298 -3 -301 -7z"/>
<path d="M2123 1783 c-8 -3 -13 -24 -13 -54 0 -32 4 -49 13 -50 6 0 59 -1 117
-2 l105 -2 -3 -30 c-4 -47 -24 -115 -33 -115 -5 0 -9 -7 -9 -15 0 -8 -4 -15
-10 -15 -5 0 -10 -6 -10 -13 0 -7 -9 -19 -20 -27 -11 -8 -20 -20 -20 -27 0 -7
-4 -13 -10 -13 -5 0 -10 -7 -10 -15 0 -9 -9 -15 -25 -15 -16 0 -25 -6 -25 -15
0 -8 -9 -15 -20 -15 -11 0 -20 -7 -20 -15 0 -10 -10 -15 -26 -15 -25 0 -26 -2
-21 -37 4 -21 11 -39 17 -41 5 -2 10 -10 10 -18 0 -9 11 -14 30 -14 20 0 30 5
30 15 0 9 9 15 25 15 16 0 25 6 25 15 0 8 4 15 10 15 10 0 70 56 70 65 0 3 11
16 25 29 14 13 25 28 25 35 0 6 5 11 10 11 6 0 10 7 10 15 0 8 5 15 10 15 6 0
10 7 10 15 0 8 5 15 10 15 6 0 10 18 10 40 0 22 4 40 9 40 11 0 21 30 31 95 5
28 12 69 15 93 l8 42 -169 -1 c-93 0 -175 -3 -181 -6z"/>
<path d="M2916 1314 c-12 -30 -6 -86 11 -102 12 -12 18 -13 21 -4 6 19 322 17
322 -2 0 -8 5 -16 12 -18 6 -2 8 -10 4 -16 -5 -9 -60 -12 -192 -12 l-184 0 0
-140 0 -140 245 0 245 0 0 55 0 55 -195 0 -195 0 0 30 0 30 185 0 185 0 0 130
0 130 -55 0 c-30 0 -55 5 -55 10 0 15 -87 12 -93 -2 -4 -10 -6 -10 -6 0 -1 9
-33 12 -125 12 -104 0 -125 -3 -130 -16z"/>
<path d="M2200 1035 l0 -155 245 0 245 0 0 60 0 60 -189 0 c-163 0 -190 2
-195 16 -3 9 -6 51 -6 95 l0 79 -50 0 -50 0 0 -155z"/>
</g>
</svg>
